<svg width="239" height="35" viewBox="0 0 239 35" fill="none" xmlns="http://www.w3.org/2000/svg">
<path d="M128.204 30.5214L127.441 28.3398H122.858L122.079 30.5214H119.45L124.145 18.1875H126.12L130.833 30.5214H128.204ZM125.199 21.8265L123.567 26.3116H126.772L125.199 21.8265Z" fill="#ED1B34"/>
<path d="M139.477 30.5214L136.957 25.6026H135.146V30.5214H132.627V18.1875H137.685C140.312 18.1875 141.872 19.9036 141.872 21.9661C141.872 23.6962 140.766 24.773 139.514 25.2043L142.398 30.5214H139.477ZM137.519 20.3387H135.145V23.5947H137.519C138.623 23.5947 139.351 22.9174 139.351 21.9673C139.351 21.0122 138.625 20.3387 137.519 20.3387Z" fill="#ED1B34"/>
<path d="M149.613 20.3387V30.5214H147.092V20.3387H143.72V18.1875H152.984V20.3387H149.613Z" fill="#ED1B34"/>
<path d="M111.969 26.9551C111.489 27.4117 110.907 27.6679 110.133 27.6679C109.356 27.6679 108.76 27.413 108.282 26.9551C107.593 26.2955 107.614 25.4812 107.614 24.3574C107.614 23.2349 107.593 22.418 108.282 21.761C108.76 21.3044 109.356 21.0469 110.133 21.0469C110.907 21.0469 111.489 21.3031 111.969 21.761C112.658 22.4193 112.647 23.2349 112.647 24.3574C112.646 25.4812 112.656 26.2955 111.969 26.9551ZM110.981 22.5296C110.79 22.3165 110.492 22.1808 110.133 22.1808C109.765 22.1808 109.46 22.3165 109.271 22.5296C109.011 22.8023 108.944 23.1042 108.944 24.3561C108.944 25.6081 109.009 25.9112 109.271 26.1852C109.461 26.3945 109.765 26.534 110.133 26.534C110.494 26.534 110.79 26.3932 110.981 26.1852C111.24 25.9112 111.315 25.6068 111.315 24.3561C111.315 23.1055 111.241 22.8023 110.981 22.5296Z" fill="#242425"/>
<path d="M115.718 22.2342V23.8337H118.409V24.9676H115.718V27.6123H114.387V21.1016H118.874V22.2342H115.718Z" fill="#242425"/>
<path d="M157.937 27.611L157.536 26.4606H155.115L154.702 27.611H153.314L155.796 21.1016H156.834L159.324 27.611H157.937ZM156.348 23.0207L155.486 25.3875H157.183L156.348 23.0207Z" fill="#242425"/>
<path d="M164.373 27.6123L161.678 23.6155V27.6123H160.347V21.1016H161.534L164.234 25.0894V21.1016H165.565V27.6123H164.373Z" fill="#242425"/>
<path d="M171.462 26.9895C171.011 27.4207 170.371 27.6123 169.662 27.6123H167.202V21.1016H169.662C170.371 21.1016 171.011 21.2918 171.462 21.7218C172.225 22.4524 172.148 23.3492 172.148 24.3296C172.148 25.3076 172.225 26.2589 171.462 26.9895ZM170.534 22.6376C170.303 22.3738 169.996 22.2355 169.538 22.2355H168.531V26.4783H169.538C169.996 26.4783 170.303 26.3413 170.534 26.075C170.784 25.782 170.818 25.3165 170.818 24.3309C170.818 23.339 170.782 22.9293 170.534 22.6376Z" fill="#242425"/>
<path d="M183.114 29.2569C182.275 30.056 181.08 30.4163 179.763 30.4163H175.182V18.2891H179.763C181.08 18.2891 182.275 18.648 183.114 19.4471C184.538 20.8094 184.398 22.4811 184.398 24.3013C184.398 26.1253 184.538 27.8934 183.114 29.2569ZM181.384 21.1506C180.957 20.6572 180.388 20.401 179.531 20.401H177.659V28.3018H179.531C180.388 28.3018 180.957 28.0469 181.384 27.5535C181.849 27.0106 181.92 26.1405 181.92 24.3C181.919 22.4608 181.849 21.6947 181.384 21.1506Z" fill="#ED1B34"/>
<path d="M187.43 30.4175V18.2891H195.789V20.4022H189.906V23.2472H194.918V25.3579H189.906V28.3031H195.789V30.4175H187.43Z" fill="#ED1B34"/>
<path d="M202.565 30.5189C200.637 30.5189 199.178 30.1295 197.929 28.9182L199.533 27.3859C200.335 28.1533 201.422 28.4095 202.599 28.4095C204.062 28.4095 204.844 27.8819 204.844 26.9078C204.844 26.4803 204.722 26.1264 204.454 25.888C204.206 25.666 203.92 25.5455 203.331 25.4605L201.799 25.255C200.709 25.1028 199.91 24.7794 199.339 24.2505C198.732 23.6721 198.428 22.8882 198.428 21.8671C198.428 19.7032 200.107 18.1875 202.852 18.1875C204.599 18.1875 205.865 18.5985 206.952 19.6018L205.382 21.0833C204.577 20.3514 203.619 20.2474 202.781 20.2474C201.462 20.2474 200.818 20.9463 200.818 21.7834C200.818 22.0891 200.925 22.4125 201.193 22.6497C201.444 22.873 201.855 23.0594 202.372 23.1279L203.868 23.3321C205.03 23.4856 205.758 23.7913 206.293 24.2695C206.971 24.8809 207.272 25.7687 207.272 26.8418C207.27 29.1934 205.221 30.5189 202.565 30.5189Z" fill="#ED1B34"/>
<path d="M212.941 18.2891H210.463V30.4175H212.941V18.2891Z" fill="#ED1B34"/>
<path d="M224.225 29.1389C223.207 30.1435 221.996 30.5176 220.639 30.5176C219.248 30.5176 218.108 30.0432 217.217 29.1922C215.933 27.9669 215.97 26.4486 215.97 24.3545C215.97 22.2578 215.933 20.7421 217.217 19.5168C218.108 18.6631 219.215 18.1875 220.639 18.1875C223.583 18.1875 225.08 20.0292 225.419 22.0726H222.923C222.637 20.9323 221.906 20.3007 220.639 20.3007C219.962 20.3007 219.41 20.5569 219.053 20.9488C218.574 21.4587 218.449 22.0219 218.449 24.3557C218.449 26.6896 218.574 27.268 219.053 27.7792C219.411 28.1724 219.962 28.4108 220.639 28.4108C221.388 28.4108 221.995 28.1546 222.404 27.7284C222.813 27.2857 222.976 26.7416 222.976 26.1112V25.6482H220.639V23.6733H225.436V25.4453C225.436 27.1982 225.115 28.2548 224.225 29.1389Z" fill="#ED1B34"/>
<path d="M235.956 30.4175L230.927 22.9733V30.4175H228.45V18.2891H230.663L235.687 25.7168V18.2891H238.167V30.4175H235.956Z" fill="#ED1B34"/>
<path d="M116.135 4.59375L112.422 15.2927H110.787L107.091 4.59375H109.357L111.605 11.5662L113.855 4.59375H116.135Z" fill="#242425"/>
<path d="M120.365 4.59375H118.179V15.2927H120.365V4.59375Z" fill="#242425"/>
<path d="M130.937 12.1345C130.937 13.148 130.545 13.942 129.763 14.5166C128.984 15.0937 127.988 15.3804 126.784 15.3804C125.033 15.3804 123.67 14.9098 122.694 13.9674L124.11 12.6152C124.74 13.2152 125.641 13.5171 126.816 13.5171C128.137 13.5171 128.798 13.0769 128.798 12.1954C128.798 11.7946 128.688 11.4965 128.466 11.3012C128.247 11.1058 127.911 10.9777 127.46 10.9168L126.108 10.7367C124.125 10.4754 123.133 9.47975 123.133 7.74584C123.133 6.77425 123.486 5.99037 124.187 5.39422C124.891 4.79807 125.84 4.5 127.034 4.5C128.544 4.5 129.751 4.91477 130.653 5.74811L129.268 7.05456C128.734 6.56496 127.968 6.31889 126.974 6.31889C126.418 6.31889 125.99 6.44573 125.691 6.70321C125.393 6.95943 125.244 7.28161 125.244 7.67228C125.244 7.98303 125.361 8.24432 125.597 8.45488C125.834 8.66543 126.171 8.79988 126.611 8.8595L127.932 9.03961C128.886 9.17026 129.598 9.44677 130.072 9.86534C130.646 10.3879 130.937 11.1439 130.937 12.1345Z" fill="#242425"/>
<path d="M141.772 11.6258C141.772 12.7382 141.378 13.6413 140.594 14.3389C139.808 15.0352 138.827 15.3828 137.652 15.3828C136.478 15.3828 135.496 15.034 134.711 14.3389C133.924 13.6425 133.531 12.7382 133.531 11.6258V4.59375H135.719V11.5509C135.719 12.1636 135.89 12.643 136.236 12.9944C136.582 13.3457 137.053 13.5195 137.652 13.5195C138.248 13.5195 138.724 13.3457 139.076 12.9944C139.427 12.643 139.602 12.1636 139.602 11.5509V4.59375H141.772V11.6258Z" fill="#242425"/>
<path d="M153.412 15.2927H151.132L150.471 13.4003H146.491L145.817 15.2927H143.535L147.607 4.59375H149.324L153.412 15.2927ZM149.888 11.641L148.52 7.74954L147.104 11.641H149.888Z" fill="#242425"/>
<path d="M162.77 15.2927H155.503V4.59375H157.689V13.4294H162.77V15.2927Z" fill="#242425"/>
<path d="M177.24 11.9988C177.051 13.0909 176.575 13.9318 175.809 14.5242C175.085 15.095 174.19 15.3804 173.12 15.3804C171.924 15.3804 170.918 14.9897 170.1 14.2083C169.597 13.7264 169.27 13.1112 169.124 12.3603C169.041 11.9189 169 11.1122 169 9.94018C169 8.76817 169.041 7.96274 169.124 7.52133C169.27 6.77044 169.597 6.154 170.1 5.672C170.918 4.89194 171.924 4.5 173.12 4.5C174.198 4.5 175.109 4.79047 175.849 5.37139C176.588 5.95232 177.051 6.78947 177.241 7.88156H175.023C174.76 6.86938 174.132 6.36328 173.135 6.36328C172.475 6.36328 171.965 6.59794 171.61 7.06978C171.326 7.4503 171.185 8.40668 171.185 9.93891C171.185 10.771 171.195 11.2923 171.217 11.5016C171.29 12.1726 171.462 12.6584 171.736 12.959C172.082 13.3306 172.548 13.5145 173.135 13.5145C174.133 13.5145 174.761 13.0097 175.023 11.9975H177.24V11.9988Z" fill="#242425"/>
<path d="M187.728 9.94018C187.728 11.1033 187.682 11.9087 187.587 12.3603C187.449 13.101 187.125 13.7175 186.612 14.2083C185.794 14.9897 184.788 15.3804 183.591 15.3804C182.386 15.3804 181.374 14.9897 180.555 14.2083C180.054 13.7264 179.727 13.1112 179.581 12.3603C179.497 11.9189 179.455 11.1122 179.455 9.94018C179.455 8.76817 179.497 7.96274 179.581 7.52007C179.727 6.77044 180.054 6.15273 180.555 5.672C181.374 4.89194 182.386 4.5 183.591 4.5C184.788 4.5 185.794 4.89067 186.612 5.672C187.125 6.16288 187.449 6.77932 187.587 7.52007C187.683 7.97162 187.728 8.77832 187.728 9.94018ZM185.543 9.94018C185.543 9.11825 185.532 8.59821 185.511 8.3775C185.447 7.71667 185.275 7.23721 184.992 6.93533C184.635 6.55481 184.169 6.36455 183.591 6.36455C183.006 6.36455 182.533 6.55481 182.176 6.93533C181.903 7.23721 181.737 7.71667 181.673 8.3775C181.652 8.55889 181.641 9.07893 181.641 9.94018C181.641 10.8014 181.652 11.3227 181.673 11.5028C181.736 12.165 181.903 12.6444 182.176 12.9463C182.533 13.3255 183.006 13.5171 183.591 13.5171C184.242 13.5171 184.75 13.2773 185.118 12.7966C185.401 12.425 185.543 11.4724 185.543 9.94018Z" fill="#242425"/>
<path d="M197.935 15.2927H190.67V4.59375H192.856V13.4294H197.935V15.2927Z" fill="#242425"/>
<path d="M207.688 15.2927H200.421V4.59375H202.608V13.4294H207.688V15.2927Z" fill="#242425"/>
<path d="M217.078 15.2927H209.702V4.59375H217.078V6.45703H211.887V8.9672H216.306V10.8305H211.887V13.4294H217.078V15.2927Z" fill="#242425"/>
<path d="M227.898 10.8927C227.898 12.359 227.541 13.4486 226.828 14.1602C226.011 14.9745 224.957 15.3804 223.667 15.3804C222.472 15.3804 221.464 14.9897 220.648 14.2084C220.145 13.7264 219.82 13.1112 219.674 12.3603C219.59 11.9189 219.546 11.1122 219.546 9.94018C219.546 8.76818 219.589 7.96274 219.674 7.52007C219.82 6.77044 220.146 6.15273 220.649 5.672C221.467 4.89194 222.477 4.5 223.675 4.5C224.892 4.5 225.887 4.84501 226.653 5.53628C227.315 6.14765 227.729 6.94421 227.898 7.92596H225.69C225.429 6.88333 224.755 6.36328 223.672 6.36328C223.095 6.36328 222.626 6.55354 222.27 6.93406C221.995 7.23594 221.828 7.7154 221.764 8.37624C221.743 8.55762 221.734 9.07767 221.734 9.93891C221.734 10.8002 221.743 11.3215 221.764 11.5016C221.827 12.1726 221.995 12.6584 222.268 12.959C222.614 13.3306 223.081 13.5145 223.667 13.5145C224.328 13.5145 224.846 13.3141 225.225 12.9133C225.559 12.562 225.727 12.0863 225.727 11.4851V11.0792H223.667V9.3212H227.898V10.8927Z" fill="#242425"/>
<path d="M238.122 15.2927H230.745V4.59375H238.122V6.45703H232.932V8.9672H237.352V10.8305H232.932V13.4294H238.122V15.2927Z" fill="#242425"/>
<path d="M99.7705 0.171875H99.0824V34.8538H99.7705V0.171875Z" fill="#242425"/>
<path d="M75.8407 3.7362H64.8976V9.21063L75.8407 9.20936C81.0274 9.20936 84.5295 12.634 84.5295 17.5136V17.5922C84.5295 22.473 81.0274 25.8178 75.8407 25.8178L68.8391 25.8102L58.9223 3.54214H53.1687L59.7427 19.7587L49.4727 19.7523C49.4727 19.7549 49.4316 19.8348 49.3944 19.935C47.7934 23.5525 44.6457 25.0948 43.3169 25.606C42.3172 25.9675 41.2114 26.1717 39.9037 26.1717C38.9572 26.1717 38.0664 26.022 37.2473 25.7557C34.6253 24.9046 32.715 22.813 31.9317 20.195C31.8375 19.8766 31.7552 19.5494 31.6954 19.2171C31.5959 18.6653 31.5414 18.0945 31.5414 17.5123V17.4349C31.5414 12.7114 35.0409 8.8542 39.905 8.8542C42.7872 8.8542 45.056 10.0351 47.2783 11.9631L51.3167 7.5135C48.635 4.99446 45.3825 3.26562 39.9422 3.26562C34.4899 3.26562 30.0546 5.69969 27.4446 9.40342L29.8262 3.73493H22.9853L15.4475 23.144L7.91227 3.73493H0.908081L12.5667 31.48H18.1676L25.1546 14.8588C24.897 15.9978 24.9063 17.591 24.9063 17.591C24.9063 25.5033 31.2109 31.7565 39.6966 31.7565C43.9581 31.7565 46.884 30.6466 49.3546 28.7681C50.4857 27.9437 51.9101 26.6905 52.9005 25.1088H62.0088L64.6494 31.2846H75.8407C84.8999 31.2846 91.162 25.2699 91.162 17.5136V17.4362C91.162 9.68247 84.8999 3.7362 75.8407 3.7362Z" fill="#ED1B34"/>
</svg>
